<?xml version="1.0" encoding="utf-8"?>
<?xml-stylesheet type="text/xsl" href="rss1.xsl"?>
<rss version="2.0" xmlns:atom="http://www.w3.org/2005/Atom" xmlns:content="http://purl.org/rss/1.0/modules/content/" xmlns:dc="http://purl.org/dc/elements/1.1/" xmlns:media="http://search.yahoo.com/mrss/">
<channel>
 <title>Getty</title>
 <link>http://www.gettyimg.com/</link>
 <atom:link href="http://www.gettyimg.com/" rel="self" type="application/rss+xml" />

 
                <item>
                <title><![CDATA[【Albums (lossless)】FLAC - Madonna - MDNA (Japanese Deluxe Edition) | CD Rip | .FLAC 16bits ／ 44.1kHz]]></title>
                <link><![CDATA[https://sharemania.us/threads/madonna-mdna-japanese-deluxe-edition-cd-rip-flac-16bits-%EF%BC%8F-44-1khz.249928/]]></link>
                <description><![CDATA[<article>
<blockquote class="messageText SelectQuoteContainer ugc baseHtml">
<div style="text-align: center"><img src="https://i.imgur.com/JiD1INE.png" class="bbCodeImage LbImage" alt="[​IMG]" data-url="https://i.imgur.com/JiD1INE.png" style=""> <br>
<br>
<span style="font-family: 'Book Antiqua'"><span style="font-size: 12px"><span style="color: #000000">includes japanese bonus track "<b><i>Girl Gone Wild (Justin Cognito Remix) [Radio Edit]</i></b>".<br>
<br>
<div class="ToggleTriggerAnchor bbCodeSpoilerContainer">
<button type="button" class="button bbCodeSpoilerButton ToggleTrigger Tooltip JsOnly" data-target="> .SpoilerTarget"><span>Spoiler: <span class="SpoilerTitle">.log</span></span></button>
<div class="SpoilerTarget bbCodeSpoilerText">Exact Audio Copy V0.99 prebeta 5 from 4. May 2009<br>
<br>
EAC extraction logfile from 10. April 2012, 17:05<br>
<br>
Madonna / MDNA (Japanese Deluxe Edition)<br>
<br>
Used drive : TSSTcorpDVDWBD TS-LB23A Adapter: 0 ID: 1<br>
<br>
Read mode : Secure<br>
Utilize accurate stream : Yes<br>
Defeat audio cache : Yes<br>
Make use of C2 pointers : No<br>
<br>
Read offset correction : 6<br>
Overread into Lead-In and Lead-Out : No<br>
Fill up missing offset samples with silence : Yes<br>
Delete leading and trailing silent blocks : No<br>
Null samples used in CRC calculations : Yes<br>
Used interface : Native Win32 interface for Win NT &amp; 2000<br>
<br>
Used output format : User Defined Encoder<br>
Selected bitrate : 192 kBit/s<br>
Quality : High<br>
Add ID3 tag : No<br>
Command line compressor : C:\Program Files (x86)\Exact Audio Copy\Flac\flac.exe<br>
Additional command line options : -8 -A tukey(0.25) -A gauss(0.1875) -b 4096 -V -T "artist=%a" -T "title=%t" -T "album=%g" -T "date=%y" -T "tracknumber=%n" -T "genre=%m" %s --sector-align<br>
<br>
<br>
TOC of the extracted CD<br>
<br>
Track | Start | Length | Start sector | End sector <br>
---------------------------------------------------------<br>
1 | 0:00.00 | 3:43.05 | 0 | 16729 <br>
2 | 3:43.05 | 5:26.03 | 16730 | 41182 <br>
3 | 9:09.08 | 4:33.38 | 41183 | 61695 <br>
4 | 13:42.46 | 3:46.42 | 61696 | 78687 <br>
5 | 17:29.13 | 3:22.57 | 78688 | 93894 <br>
6 | 20:51.70 | 3:53.54 | 93895 | 111423 <br>
7 | 24:45.49 | 3:55.01 | 111424 | 129049 <br>
8 | 28:40.50 | 4:19.13 | 129050 | 148487 <br>
9 | 32:59.63 | 4:52.29 | 148488 | 170416 <br>
10 | 37:52.17 | 3:46.31 | 170417 | 187397 <br>
11 | 41:38.48 | 3:59.48 | 187398 | 205370 <br>
12 | 45:38.21 | 5:14.12 | 205371 | 228932 <br>
13 | 50:52.33 | 3:49.31 | 228933 | 246138 <br>
14 | 54:41.64 | 3:29.20 | 246139 | 261833 <br>
15 | 58:11.09 | 3:33.52 | 261834 | 277860 <br>
16 | 61:44.61 | 3:20.15 | 277861 | 292875 <br>
17 | 65:05.01 | 4:02.29 | 292876 | 311054 <br>
18 | 69:07.30 | 3:37.36 | 311055 | 327365 <br>
<br>
<br>
Range status and errors<br>
<br>
Selected range<br>
<br>
Filename D:\Ripados\RUTracker.org\Madonna - MDNA (Japanese Deluxe Edition)\Madonna - MDNA (Japanese Deluxe Edition).wav<br>
<br>
Peak level 99.9 %<br>
Range quality 100.0 %<br>
Test CRC D1D4913F<br>
Copy CRC D1D4913F<br>
Copy OK<br>
<br>
No errors occurred<br>
<br>
<br>
AccurateRip summary<br>
<br>
Track 1 not present in database<br>
Track 2 not present in database<br>
Track 3 not present in database<br>
Track 4 not present in database<br>
Track 5 not present in database<br>
Track 6 not present in database<br>
Track 7 not present in database<br>
Track 8 not present in database<br>
Track 9 not present in database<br>
Track 10 not present in database<br>
Track 11 not present in database<br>
Track 12 not present in database<br>
Track 13 not present in database<br>
Track 14 not present in database<br>
Track 15 not present in database<br>
Track 16 not present in database<br>
Track 17 not present in database<br>
Track 18 not present in database<br>
<br>
None of the tracks are present in the AccurateRip database<br>
<br>
End of status report</div>
</div></span></span></span><br>
<span style="font-family: 'Book Antiqua'"><span style="font-size: 12px"><span style="color: #000000"><br>
<div class="bbCodeBlock bbCodeVfcHH HiddenContent">
<div class="attribution type">Hidden Content:</div>
<blockquote>You must reply before you can see the hidden data contained here.</blockquote>
</div></span></span></span>​</div>
<div class="messageTextEndMarker">&nbsp;</div>
</blockquote>
</article>]]></description>
                <author><![CDATA[Nuric]]></author>
                </item>

                </channel></rss>